<?xml version="1.0" encoding="UTF-8"?>
<svg id="Layer_2" data-name="Layer 2" xmlns="http://www.w3.org/2000/svg" viewBox="0 0 144.22 118.02">
  <defs>
    <style>
      .cls-1 {
        fill: #108040;
      }

      .cls-2 {
        fill: #4bb750;
      }

      .cls-3 {
        fill: #034b25;
      }
    </style>
  </defs>
  <g id="Layer_2-2" data-name="Layer 2">
    <g>
      <path class="cls-3" d="m72.99,4.3l64.59,70.7-24.5-.1-40.17-45.54-41.51,45.83-24.62.33,1.63-1.76L72.99,4.3m.02-4.3l-2.15,2.32L6.28,71.78l-1.63,1.76-4.64,4.99,6.82-.09,24.62-.33,1.27-.02.85-.94,39.32-43.41,38.01,43.09.87.98h1.31s24.5.1,24.5.1l6.65.03-4.49-4.91L75.14,2.34l-2.13-2.34h0Z"/>
      <path class="cls-1" d="m72.67,43.53l64.53,71.55-24.17-.06-40.33-44.59-17.77,18.72-12.19-13.43,29.93-32.19m.03-4.32l-2.17,2.33-29.93,32.19-1.82,1.96,1.8,1.98,12.19,13.43,2.11,2.33,2.16-2.28,15.6-16.44,38.21,42.26.87.96h1.29s24.17.07,24.17.07l6.58.02-4.41-4.89L74.84,41.58l-2.13-2.37h0Z"/>
      <path class="cls-2" d="m72.27,83.05l29.2,31.88-23.09-.43-18.07-19.26,11.97-12.19m.07-4.24l-2.15,2.19-11.97,12.19-1.96,2,1.92,2.04,18.07,19.26.84.9,1.23.02,23.09.43,6.8.13-4.59-5.01-29.2-31.88-2.08-2.27h0Z"/>
    </g>
  </g>
</svg>