<?xml version="1.0" encoding="UTF-8"?>
<svg id="Layer_2" data-name="Layer 2" xmlns="http://www.w3.org/2000/svg" viewBox="0 0 528.77 124.41">
  <defs>
    <style>
      .cls-1 {
        fill: #108040;
      }

      .cls-2 {
        fill: #4bb750;
      }

      .cls-3 {
        fill: #128241;
      }

      .cls-4 {
        fill: #034b25;
      }

      .cls-5 {
        fill: #06221c;
      }
    </style>
  </defs>
  <g id="Layer_2-2" data-name="Layer 2">
    <g>
      <path class="cls-4" d="m72.99,10.7l64.59,70.7-24.5-.1-40.17-45.54-41.51,45.83-24.62.33,1.63-1.76L72.99,10.7m.02-4.3l-2.15,2.32L6.28,78.18l-1.63,1.76-4.64,4.99,6.82-.09,24.62-.33,1.27-.02.85-.94,39.32-43.41,38.01,43.09.87.98h1.31s24.5.1,24.5.1l6.65.03-4.49-4.91L75.14,8.73l-2.13-2.34h0Z"/>
      <path class="cls-1" d="m72.67,49.93l64.53,71.55-24.17-.06-40.33-44.59-17.77,18.72-12.19-13.43,29.93-32.19m.03-4.32l-2.17,2.33-29.93,32.19-1.82,1.96,1.8,1.98,12.19,13.43,2.11,2.33,2.16-2.28,15.6-16.44,38.21,42.26.87.96h1.29s24.17.07,24.17.07l6.58.02-4.41-4.89L74.84,47.97l-2.13-2.37h0Z"/>
      <path class="cls-2" d="m72.27,89.44l29.2,31.88-23.09-.43-18.07-19.26,11.97-12.19m.07-4.24l-2.15,2.19-11.97,12.19-1.96,2,1.92,2.04,18.07,19.26.84.9,1.23.02,23.09.43,6.8.13-4.59-5.01-29.2-31.88-2.08-2.27h0Z"/>
    </g>
    <g>
      <path class="cls-3" d="m203.88,4.25c-13.33.08-24.18,11.83-24.18,26.2s10.9,26.25,24.23,26.2c5.9,0,11.56-2.4,15.96-6.78,5.01-4.98,7.89-12.06,7.89-19.42.04-7.24-2.8-14.26-7.77-19.27-4.45-4.48-10.18-6.94-16.13-6.94Zm0,3.44c11.47.07,20.46,10.07,20.46,22.77.04,6.56-2.32,12.56-6.62,16.89-3.77,3.79-8.7,5.87-13.91,5.87-5.13,0-10.08-2.03-13.87-5.8-4.32-4.29-6.8-10.48-6.8-16.96,0-12.76,9.11-22.76,20.74-22.76Z"/>
      <path class="cls-3" d="m253.41,15.55c-5.94.05-11.43,3.34-14.83,8.67v-8.67h-3.44v54.49h3.44v-22c3.4,5.33,8.89,8.61,14.83,8.61,4.44.04,8.72-1.77,12.06-5.09,3.96-3.93,6.23-9.58,6.23-15.49.04-5.75-2.18-11.3-6.09-15.24-3.38-3.41-7.71-5.28-12.2-5.28Zm0,3.44c8.33.07,14.85,7.57,14.85,17.08.04,5-1.78,9.72-4.97,12.94-2.69,2.71-6.2,4.2-9.88,4.2h-.11c-3.53,0-6.92-1.44-9.58-4.08-3.27-3.25-5.15-8.01-5.15-13.07,0-9.57,6.52-17.07,14.83-17.07Z"/>
      <path class="cls-3" d="m306.42,41.48c.03,2.99-1.12,5.81-3.25,7.96-2.38,2.4-5.81,3.78-9.44,3.78-.04,0-.09,0-.14,0-3.5,0-6.73-1.3-9.12-3.67-2.2-2.18-3.42-5.05-3.42-8.08l.07-24.03.18-1.82h-3.69v25.85c.08,8.37,7.31,15.18,16.11,15.18.05,0,.09,0,.14,0,4.29,0,8.47-1.72,11.5-4.72,2.89-2.87,4.49-6.58,4.49-10.46l.07-24.03.18-1.82h-3.69v25.85Z"/>
      <rect class="cls-3" x="317.22" width="3.44" height="56.65"/>
      <path class="cls-3" d="m347.73,15.55c-9.42.07-17.42,8.45-18.21,18.87h-.06v3.44h.08c.52,5.75,3.4,11.3,7.83,14.99,3.07,2.56,6.57,3.92,10.02,3.92.59,0,1.18-.04,1.77-.12,9.09-1.13,13.61-4.25,15.61-10.85l.5-2.16h-3.36l-.48,1.11-.04.11c-1.35,4.47-3.76,7.13-12.65,8.37-3.13.45-6.44-.62-9.31-3.02-3.62-3.02-5.99-7.57-6.45-12.34h33.04v-1.72c0-11.35-8.2-20.59-18.29-20.59Zm-14.75,18.87c.79-8.73,7.11-15.43,14.75-15.43,7.88.06,14.35,6.9,14.82,15.43h-29.57Z"/>
      <path class="cls-3" d="m405.62,32.91c.04-4.69-1.83-9.28-5.12-12.6-3.04-3.06-6.95-4.75-11.01-4.75-4.96.04-9.63,2.61-12.67,6.78v-6.78h-3.44v41.1h3.44v-23.75c0-7.8,5.57-13.91,12.67-13.91,7.12.07,12.69,6.17,12.69,13.91l.08,22.2.16,1.62h3.37l-.17-1.79v-22.03Z"/>
      <path class="cls-3" d="m424.78,53.21c-6,0-8.94-2.55-9.01-7.79v-26h8.79v-3.44h-8.79V6.84h-3.44v9.15h-5.62v3.44h5.62v26.01c.08,7.02,4.73,11.21,12.45,11.21h1.72v-3.44h-1.72Z"/>
    </g>
    <g>
      <path class="cls-5" d="m190.38,81.6v12.6h16.92v7.99h-16.92v13.32h19.08v8.21h-29.16v-50.33h29.16v8.21h-19.08Z"/>
      <path class="cls-5" d="m237.03,123.72l-8.21-12.38-7.27,12.38h-10.8l13.03-20.02-13.18-19.87h11.38l8.14,12.31,7.34-12.31h10.8l-13.1,19.87,13.25,20.02h-11.38Z"/>
      <path class="cls-5" d="m262.02,92.12v19.3c0,1.34.32,2.32.97,2.92.65.6,1.74.9,3.28.9h4.68v8.5h-6.34c-8.5,0-12.74-4.13-12.74-12.38v-19.22h-4.75v-8.28h4.75v-9.86h10.15v9.86h8.93v8.28h-8.93Z"/>
      <path class="cls-5" d="m311.41,106.8h-29.16c.24,2.88,1.25,5.14,3.02,6.77,1.78,1.63,3.96,2.45,6.55,2.45,3.74,0,6.41-1.61,7.99-4.82h10.87c-1.15,3.84-3.36,7-6.62,9.47-3.26,2.47-7.27,3.71-12.02,3.71-3.84,0-7.28-.85-10.33-2.56-3.05-1.7-5.42-4.12-7.13-7.24-1.7-3.12-2.56-6.72-2.56-10.8s.84-7.75,2.52-10.87c1.68-3.12,4.03-5.52,7.06-7.2,3.02-1.68,6.5-2.52,10.44-2.52s7.19.82,10.19,2.45c3,1.63,5.33,3.95,6.98,6.95,1.66,3,2.48,6.44,2.48,10.33,0,1.44-.1,2.74-.29,3.89Zm-10.15-6.77c-.05-2.59-.98-4.67-2.81-6.23-1.82-1.56-4.06-2.34-6.7-2.34-2.5,0-4.6.76-6.3,2.27-1.7,1.51-2.75,3.61-3.13,6.3h18.94Z"/>
      <path class="cls-5" d="m349.06,87.76c2.93,3,4.39,7.19,4.39,12.56v23.4h-10.08v-22.03c0-3.17-.79-5.6-2.38-7.31-1.58-1.7-3.74-2.56-6.48-2.56s-4.98.85-6.59,2.56c-1.61,1.7-2.41,4.14-2.41,7.31v22.03h-10.08v-39.89h10.08v4.97c1.34-1.73,3.06-3.08,5.15-4.07,2.09-.98,4.38-1.48,6.88-1.48,4.75,0,8.59,1.5,11.52,4.5Z"/>
      <path class="cls-5" d="m365.91,122.61c-2.59-1.18-4.64-2.77-6.16-4.79-1.51-2.02-2.34-4.25-2.48-6.7h10.15c.19,1.54.95,2.81,2.27,3.82,1.32,1.01,2.96,1.51,4.93,1.51s3.42-.38,4.5-1.15c1.08-.77,1.62-1.75,1.62-2.95,0-1.3-.66-2.27-1.98-2.92s-3.42-1.36-6.3-2.12c-2.98-.72-5.41-1.46-7.31-2.23-1.9-.77-3.53-1.94-4.9-3.53-1.37-1.58-2.05-3.72-2.05-6.41,0-2.21.64-4.22,1.91-6.05,1.27-1.82,3.1-3.26,5.47-4.32,2.38-1.05,5.17-1.58,8.39-1.58,4.75,0,8.54,1.19,11.38,3.56,2.83,2.38,4.39,5.58,4.68,9.61h-9.65c-.14-1.58-.8-2.84-1.98-3.78-1.18-.94-2.75-1.4-4.72-1.4-1.83,0-3.23.34-4.21,1.01-.98.67-1.48,1.61-1.48,2.81,0,1.34.67,2.36,2.02,3.06,1.34.7,3.43,1.4,6.26,2.12,2.88.72,5.26,1.46,7.13,2.23s3.49,1.96,4.86,3.56c1.37,1.61,2.08,3.73,2.12,6.37,0,2.3-.64,4.37-1.91,6.19-1.27,1.82-3.1,3.25-5.47,4.28-2.38,1.03-5.15,1.55-8.32,1.55s-6.19-.59-8.78-1.76Z"/>
      <path class="cls-5" d="m395.75,77.39c-1.18-1.13-1.76-2.53-1.76-4.21s.59-3.08,1.76-4.21c1.18-1.13,2.65-1.69,4.43-1.69s3.25.57,4.43,1.69c1.18,1.13,1.76,2.53,1.76,4.21s-.59,3.08-1.76,4.21c-1.18,1.13-2.65,1.69-4.43,1.69s-3.25-.56-4.43-1.69Zm9.4,6.44v39.89h-10.08v-39.89h10.08Z"/>
      <path class="cls-5" d="m418.83,121.82c-3.07-1.7-5.48-4.12-7.24-7.24-1.75-3.12-2.63-6.72-2.63-10.8s.9-7.68,2.7-10.8c1.8-3.12,4.26-5.53,7.38-7.24,3.12-1.7,6.6-2.56,10.44-2.56s7.32.85,10.44,2.56c3.12,1.71,5.58,4.12,7.38,7.24,1.8,3.12,2.7,6.72,2.7,10.8s-.92,7.68-2.77,10.8-4.34,5.53-7.49,7.24c-3.14,1.7-6.66,2.56-10.55,2.56s-7.3-.85-10.37-2.56Zm15.52-7.56c1.61-.89,2.89-2.22,3.85-4,.96-1.78,1.44-3.94,1.44-6.48,0-3.79-1-6.71-2.99-8.75-1.99-2.04-4.43-3.06-7.31-3.06s-5.29,1.02-7.24,3.06c-1.94,2.04-2.92,4.96-2.92,8.75s.95,6.71,2.84,8.75c1.9,2.04,4.28,3.06,7.16,3.06,1.82,0,3.54-.44,5.15-1.33Z"/>
      <path class="cls-5" d="m487.44,87.76c2.93,3,4.39,7.19,4.39,12.56v23.4h-10.08v-22.03c0-3.17-.79-5.6-2.38-7.31-1.58-1.7-3.74-2.56-6.48-2.56s-4.98.85-6.59,2.56c-1.61,1.7-2.41,4.14-2.41,7.31v22.03h-10.08v-39.89h10.08v4.97c1.34-1.73,3.06-3.08,5.15-4.07,2.09-.98,4.38-1.48,6.88-1.48,4.75,0,8.59,1.5,11.52,4.5Z"/>
      <path class="cls-5" d="m504.29,122.61c-2.59-1.18-4.64-2.77-6.16-4.79-1.51-2.02-2.34-4.25-2.48-6.7h10.15c.19,1.54.95,2.81,2.27,3.82s2.96,1.51,4.93,1.51,3.42-.38,4.5-1.15c1.08-.77,1.62-1.75,1.62-2.95,0-1.3-.66-2.27-1.98-2.92-1.32-.65-3.42-1.36-6.3-2.12-2.98-.72-5.41-1.46-7.31-2.23-1.9-.77-3.53-1.94-4.9-3.53s-2.05-3.72-2.05-6.41c0-2.21.63-4.22,1.91-6.05,1.27-1.82,3.1-3.26,5.47-4.32,2.38-1.05,5.17-1.58,8.39-1.58,4.75,0,8.54,1.19,11.38,3.56,2.83,2.38,4.39,5.58,4.68,9.61h-9.65c-.14-1.58-.8-2.84-1.98-3.78-1.18-.94-2.75-1.4-4.72-1.4-1.82,0-3.23.34-4.21,1.01-.98.67-1.48,1.61-1.48,2.81,0,1.34.67,2.36,2.02,3.06,1.34.7,3.43,1.4,6.26,2.12,2.88.72,5.26,1.46,7.13,2.23s3.49,1.96,4.86,3.56c1.37,1.61,2.08,3.73,2.12,6.37,0,2.3-.64,4.37-1.91,6.19-1.27,1.82-3.1,3.25-5.47,4.28-2.38,1.03-5.15,1.55-8.32,1.55s-6.19-.59-8.78-1.76Z"/>
    </g>
    <rect class="cls-3" x="157.96" y="6.59" width="4" height="116.55"/>
  </g>
</svg>